HIERARCHY
ROOT root
{
	OFFSET	0	13.1	24.9
	CHANNELS 6  Xposition Yposition Zposition Xrotation Yrotation Zrotation
	JOINT spine_1
	{
		OFFSET	0	9.99999	0
		CHANNELS 3  Xrotation Yrotation Zrotation
		JOINT spine_2
		{
			OFFSET	0	112	-10
			CHANNELS 3  Xrotation Yrotation Zrotation
			JOINT spine_3
			{
				OFFSET	0	206.5	19.3
				CHANNELS 3  Xrotation Yrotation Zrotation
				JOINT spine_4
				{
					OFFSET	0	110.4	14.6
					CHANNELS 3  Xrotation Yrotation Zrotation
					JOINT neck_1
					{
						OFFSET	0	71.8	-50.3
						CHANNELS 3  Xrotation Yrotation Zrotation
						JOINT neck_2
						{
							OFFSET	0	86.2	-25.8
							CHANNELS 3  Xrotation Yrotation Zrotation
							JOINT head_ee
							{
								OFFSET	0	179.8	-8.7
								CHANNELS 3  Xrotation Yrotation Zrotation
								End Site
								{
									OFFSET	1	0	0
								}
							}
						}
					}
					JOINT left_clavicle
					{
						OFFSET	-43.2	22.4	-70.8
						CHANNELS 3  Xrotation Yrotation Zrotation
						JOINT left_shoulder
						{
							OFFSET	-93.9	-5.79999	48.7
							CHANNELS 3  Xrotation Yrotation Zrotation
							JOINT left_elbow
							{
								OFFSET	-291.4	-30.8	15.2
								CHANNELS 3  Xrotation Yrotation Zrotation
								JOINT left_lowarm_twist
								{
									OFFSET	-110.7	-3.89999	13.6
									CHANNELS 3  Xrotation Yrotation Zrotation
									JOINT left_hand
									{
										OFFSET	-110.7	-3.89999	13.6
										CHANNELS 3  Xrotation Yrotation Zrotation
										JOINT left_ee
										{
											OFFSET	-80.8	-5.10001	12.1
											CHANNELS 3  Xrotation Yrotation Zrotation
											End Site
											{
												OFFSET	1	0	0
											}
										}
									}
								}
							}
						}
					}
					JOINT right_clavicle
					{
						OFFSET	43.2	22.4	-70.8
						CHANNELS 3  Xrotation Yrotation Zrotation
						JOINT right_shoulder
						{
							OFFSET	93.9	-5.79999	48.7
							CHANNELS 3  Xrotation Yrotation Zrotation
							JOINT right_elbow
							{
								OFFSET	291.4	-30.8	15.2
								CHANNELS 3  Xrotation Yrotation Zrotation
								JOINT right_lowarm_twist
								{
									OFFSET	110.7	-3.89999	13.6
									CHANNELS 3  Xrotation Yrotation Zrotation
									JOINT right_hand
									{
										OFFSET	110.7	-3.89999	13.6
										CHANNELS 3  Xrotation Yrotation Zrotation
										JOINT right_ee
										{
											OFFSET	80.8	-5.10001	12.1
											CHANNELS 3  Xrotation Yrotation Zrotation
											End Site
											{
												OFFSET	1	0	0
											}
										}
									}
								}
							}
						}
					}
				}
			}
		}
	}
	JOINT left_hip
	{
		OFFSET	-82.8	-127.5	0.300001
		CHANNELS 3  Xrotation Yrotation Zrotation
		JOINT left_knee
		{
			OFFSET	-28.2	-396.7	2.2
			CHANNELS 3  Xrotation Yrotation Zrotation
			JOINT left_ankle
			{
				OFFSET	-11.7	-411.3	35.4
				CHANNELS 3  Xrotation Yrotation Zrotation
				JOINT left_toes
				{
					OFFSET	0	-60	-88.6
					CHANNELS 3  Xrotation Yrotation Zrotation
					JOINT left_foot_ee
					{
						OFFSET	-22.5	-16.5	-42.2
						CHANNELS 3  Xrotation Yrotation Zrotation
						End Site
						{
							OFFSET	1	0	0
						}
					}
				}
			}
		}
	}
	JOINT right_hip
	{
		OFFSET	82.8	-127.5	0.300001
		CHANNELS 3  Xrotation Yrotation Zrotation
		JOINT right_knee
		{
			OFFSET	28.2	-396.7	2.2
			CHANNELS 3  Xrotation Yrotation Zrotation
			JOINT right_ankle
			{
				OFFSET	11.7	-411.3	35.4
				CHANNELS 3  Xrotation Yrotation Zrotation
				JOINT right_toes
				{
					OFFSET	0	-60	-88.6
					CHANNELS 3  Xrotation Yrotation Zrotation
					JOINT right_foot_ee
					{
						OFFSET	22.5	-16.5	-42.2
						CHANNELS 3  Xrotation Yrotation Zrotation
						End Site
						{
							OFFSET	1	0	0
						}
					}
				}
			}
		}
	}
}
MOTION
Frames: 6
Frame Time: 0.02
3475.27283212 734.1 -1558.77778807 23.5839032273 84.8118745137 -26.4836793171 -1.25469 0.410192 3.02416 -1.24963 0.217016 3.04411 -1.23381 -0.492948 3.01179 -1.24646 -0.011336 3.05181 -23.2833 8.49158 -3.80424 -23.8667 18.0853 0.620801 -0.0 0.0 -0.0 3.94152 24.3473 8.12969 -9.17231 -5.49419 60.2471 1.05123 -27.5074 0.257312 -78.182 -7.59077 5.30053 0.0953229 6.62949 3.38726 -0.0 0.0 -0.0 13.7011 23.8322 -27.5492 0.769613 30.5434 -60.3833 0.797658 21.5607 -0.15188 33.7104 0.0631512 4.24433 -2.42268 -16.7417 8.01983 0.0 0.0 0.0 7.05011 14.8284 -4.09356 -17.8145 0.31525 2.70462 37.5684 25.9732 -4.95883 -34.2282 0.0 0.0 -0.0 0.0 -0.0 7.55361 16.5034 1.15298 -35.5113 0.206165 -5.35974 25.6472 5.76724 3.48573 12.2239 -0.0 -0.0 0.0 0.0 0.0 
3478.28327511 734.1 -1562.20526339 17.076842657 82.9230658803 -19.9401356859 -1.25469 0.410192 3.02416 -1.24963 0.217016 3.04411 -1.23381 -0.492948 3.01179 -1.24646 -0.011336 3.05181 -23.2833 8.49158 -3.80424 -23.8667 18.0853 0.620801 -0.0 0.0 -0.0 3.94152 24.3473 8.12969 -9.17231 -5.49419 60.2471 1.05123 -27.5074 0.257312 -78.182 -7.59077 5.30053 0.0953229 6.62949 3.38726 -0.0 0.0 -0.0 13.7011 23.8322 -27.5492 0.769613 30.5434 -60.3833 0.797658 21.5607 -0.15188 33.7104 0.0631512 4.24433 -2.42268 -16.7417 8.01983 0.0 0.0 0.0 7.05011 14.8284 -4.09356 -17.8145 0.31525 2.70462 37.5684 25.9732 -4.95883 -34.2282 0.0 0.0 -0.0 0.0 -0.0 7.55361 16.5034 1.15298 -35.5113 0.206165 -5.35974 25.6472 5.76724 3.48573 12.2239 -0.0 -0.0 0.0 0.0 0.0 
3478.98998274 734.1 -1562.97569895 16.0509067817 82.4813150824 -18.9058292766 -1.25469 0.410192 3.02416 -1.24963 0.217016 3.04411 -1.23381 -0.492948 3.01179 -1.24646 -0.011336 3.05181 -23.2833 8.49158 -3.80424 -23.8667 18.0853 0.620801 -0.0 0.0 -0.0 3.94152 24.3473 8.12969 -9.17231 -5.49419 60.2471 1.05123 -27.5074 0.257312 -78.182 -7.59077 5.30053 0.0953229 6.62949 3.38726 -0.0 0.0 -0.0 13.7011 23.8322 -27.5492 0.769613 30.5434 -60.3833 0.797658 21.5607 -0.15188 33.7104 0.0631512 4.24433 -2.42268 -16.7417 8.01983 0.0 0.0 0.0 7.05011 14.8284 -4.09356 -17.8145 0.31525 2.70462 37.5684 25.9732 -4.95883 -34.2282 0.0 0.0 -0.0 0.0 -0.0 7.55361 16.5034 1.15298 -35.5113 0.206165 -5.35974 25.6472 5.76724 3.48573 12.2239 -0.0 -0.0 0.0 0.0 0.0 
3467.68732426 738.047 -1559.30740615 26.3552535249 84.5198905211 -29.4781459448 -1.53782 0.35406 3.19451 -1.53216 0.150175 3.21054 -1.51871 -0.61234 3.15524 -1.53259 -0.106614 3.21228 -24.3722 8.3621 -3.83409 -24.975 17.7688 0.688837 -0.0 0.0 -0.0 3.89039 24.8055 8.05663 -9.70658 -5.38385 60.1242 1.00438 -26.4517 0.23606 -78.3646 -7.61402 5.29878 0.0837847 7.20115 3.54573 -0.0 0.0 -0.0 13.5121 22.5621 -27.2314 1.89701 30.7614 -60.2317 0.947156 25.1353 -0.211157 33.7812 0.0659092 4.25295 -2.54979 -16.7634 8.7945 0.0 0.0 0.0 8.33187 14.5076 -3.2118 -18.0305 0.313881 2.73774 37.1363 26.6421 -4.93649 -34.2193 0.0 0.0 -0.0 0.0 -0.0 5.91459 16.1923 1.47771 -35.435 0.202174 -5.34872 26.0621 4.52894 3.51805 12.5023 -0.0 -0.0 0.0 0.0 0.0 
3458.5745623 737.499 -1558.48237126 50.0903670554 85.9612170893 -53.431844052 -1.68892 0.368458 3.26328 -1.68301 0.160175 3.28009 -1.66835 -0.627492 3.22355 -1.68283 -0.110804 3.28212 -24.574 7.81086 -4.14573 -25.1084 16.8262 0.133354 -0.0 0.0 -0.0 3.42005 24.5108 7.42123 -10.2176 -5.55761 61.1414 0.936873 -24.8956 0.206809 -78.4363 -7.62315 5.29807 0.111358 7.4517 3.82744 -0.0 0.0 -0.0 13.6541 23.658 -27.457 2.49041 30.4177 -59.8332 1.1315 29.2701 -0.295481 32.4531 0.0159575 4.09072 -2.63936 -13.2179 11.2075 0.0 0.0 0.0 10.7535 14.1076 -4.33509 -18.6191 0.309516 2.82794 34.2976 26.41 -4.62793 -35.444 0.0 0.0 -0.0 0.0 -0.0 2.75958 16.5039 2.11037 -33.0087 0.0828835 -4.99563 26.6913 4.94088 3.59513 11.7233 -0.0 -0.0 0.0 0.0 0.0 
3440.1906412 736.404 -1552.91034064 87.7727878803 85.4613814582 -91.1502513552 -1.86383 0.490238 3.3556 -1.85761 0.275844 3.37995 -1.83497 -0.548608 3.34656 -1.85059 -0.0135123 3.39115 -24.6834 8.05278 -4.32304 -25.2565 17.3578 0.114518 -0.0 0.0 -0.0 3.50201 25.0701 7.53425 -10.7393 -5.31433 60.7568 0.844422 -22.6995 0.169498 -78.1575 -7.58765 5.30076 0.0652025 8.1534 3.81327 -0.0 0.0 -0.0 13.6071 23.3536 -27.3777 4.17697 31.0838 -60.4155 1.02507 26.9204 -0.24535 33.5101 0.0554085 4.21993 -2.57203 -16.2017 9.22526 0.0 0.0 0.0 12.5699 13.6577 -5.62282 -17.9293 0.314538 2.72222 36.7644 26.488 -4.89283 -34.1219 0.0 0.0 -0.0 0.0 -0.0 0.861509 16.0233 1.94076 -36.6947 0.269987 -5.53 26.3482 5.00665 3.55676 12.5238 -0.0 -0.0 0.0 0.0 0.0 
